<?xml version="1.0" standalone="no"?>
<!DOCTYPE svg PUBLIC "-//W3C//DTD SVG 20010904//EN"
 "http://www.w3.org/TR/2001/REC-SVG-20010904/DTD/svg10.dtd">
<svg version="1.0" xmlns="http://www.w3.org/2000/svg"
 width="160.000000pt" height="264.000000pt" viewBox="0 0 160.000000 264.000000"
 preserveAspectRatio="xMidYMid meet">
<metadata>
Created by potrace 1.16, written by Peter Selinger 2001-2019
</metadata>
<g transform="translate(0.000000,264.000000) scale(0.100000,-0.100000)"
fill="#000000" stroke="none">
<path d="M765 2508 c-8 -28 -15 -62 -15 -74 0 -13 -4 -34 -10 -49 -12 -31 -26
-26 -83 31 -20 20 -39 35 -42 32 -3 -2 17 -69 44 -149 72 -214 75 -233 67
-468 -3 -113 -9 -207 -12 -210 -3 -3 -20 11 -37 32 -18 21 -48 45 -67 55 -19
9 -49 37 -68 62 -18 25 -52 67 -75 94 -23 27 -50 61 -60 77 -10 15 -46 46 -81
68 -34 23 -73 52 -86 66 l-23 25 113 115 c63 63 111 115 107 115 -17 0 -168
-82 -242 -131 -116 -78 -145 -101 -145 -116 0 -24 43 -74 122 -139 43 -36 96
-88 117 -117 76 -100 92 -116 146 -146 40 -23 64 -46 91 -88 20 -32 59 -80 87
-107 45 -46 49 -53 44 -87 -7 -53 -39 -93 -100 -126 -36 -20 -64 -45 -93 -87
-31 -44 -55 -66 -95 -87 -61 -30 -122 -91 -194 -194 -27 -38 -59 -83 -72 -98
l-23 -28 27 -47 c62 -109 137 -192 388 -428 168 -158 272 -250 297 -265 13 -7
26 1 60 37 24 26 75 74 113 107 39 33 81 81 95 106 19 34 38 52 75 71 46 24
68 46 187 192 20 25 61 59 91 76 29 17 62 43 72 59 9 15 29 40 43 56 l26 27
-20 28 c-12 15 -60 61 -108 102 -47 41 -97 93 -110 115 -13 22 -50 58 -83 80
-36 25 -72 62 -96 98 -21 31 -72 84 -112 117 -130 106 -144 145 -67 184 58 30
97 70 206 211 66 87 112 133 218 220 77 64 134 119 136 131 4 30 -77 109 -200
192 -60 40 -108 69 -108 64 0 -5 36 -50 80 -101 44 -50 80 -99 80 -107 0 -29
-32 -63 -123 -132 -51 -38 -154 -131 -230 -207 -75 -76 -141 -135 -145 -131
-4 4 -7 78 -7 164 -1 87 -5 189 -9 229 -11 90 3 137 86 285 76 135 74 154 -7
99 -64 -43 -85 -50 -85 -27 0 27 -51 176 -60 176 -5 0 -16 -23 -25 -52z m325
-1484 c102 -100 200 -194 218 -209 17 -15 32 -33 32 -40 0 -27 -102 -126 -157
-152 -42 -19 -62 -36 -83 -72 -46 -76 -79 -110 -155 -160 l-72 -47 -1 85 c-1
48 -2 118 -1 156 2 145 1 306 -4 478 l-5 178 22 -18 c11 -9 104 -99 206 -199z
m-370 80 c8 -44 10 -91 5 -120 -4 -27 -7 -69 -5 -94 4 -99 3 -189 -4 -260 -7
-62 -4 -90 13 -157 12 -45 21 -95 21 -111 0 -29 -2 -30 -29 -22 -44 12 -71 29
-141 87 -66 54 -279 282 -292 312 -14 34 -8 87 15 120 12 18 49 52 82 75 33
23 79 67 102 98 24 31 74 79 112 107 38 28 75 58 82 67 12 15 14 14 20 -7 4
-13 12 -56 19 -95z"/>
</g>
</svg>
