<?xml version="1.0" standalone="no"?>
<!DOCTYPE svg PUBLIC "-//W3C//DTD SVG 20010904//EN"
 "http://www.w3.org/TR/2001/REC-SVG-20010904/DTD/svg10.dtd">
<svg version="1.0" xmlns="http://www.w3.org/2000/svg"
 width="683.000000pt" height="934.000000pt" viewBox="0 0 683.000000 934.000000"
 preserveAspectRatio="xMidYMid meet">
<metadata>
Created by potrace 1.16, written by Peter Selinger 2001-2019
</metadata>
<g transform="translate(0.000000,934.000000) scale(0.100000,-0.100000)"
fill="#000000" stroke="none">
<path d="M1685 9334 c-37 -10 -96 -34 -112 -47 -77 -62 -112 -101 -111 -124 2
-22 5 -21 45 23 24 25 43 52 43 60 0 8 6 11 15 8 8 -4 15 -1 15 5 0 6 6 10 13
9 6 -2 11 2 10 7 -1 6 8 11 20 12 12 1 48 7 79 14 48 10 79 9 185 -4 71 -9
146 -19 168 -22 22 -2 64 -9 93 -14 54 -10 82 -6 82 11 0 5 -5 6 -10 3 -6 -4
-16 -2 -23 3 -14 11 -254 45 -267 37 -4 -3 -10 -1 -12 5 -3 11 -200 22 -233
14z"/>
<path d="M3360 9264 c-52 -19 -109 -51 -135 -77 -16 -17 -24 -27 -17 -23 6 4
12 3 12 -3 0 -5 -10 -11 -22 -13 -13 -2 -22 -9 -20 -16 1 -6 -3 -11 -10 -9 -6
1 -16 -8 -23 -19 -6 -12 -17 -29 -24 -38 -10 -11 -10 -16 -2 -16 7 0 9 -5 6
-10 -4 -6 -10 -8 -15 -5 -5 3 -11 -8 -15 -25 -4 -16 -12 -30 -19 -30 -19 0
-117 62 -155 98 -30 29 -38 34 -58 31 -3 0 -10 7 -15 16 -6 10 -16 14 -30 9
-14 -4 -18 -2 -14 5 5 7 -4 11 -26 11 -24 0 -29 -3 -18 -9 8 -6 18 -7 22 -5 4
3 8 0 8 -5 0 -6 9 -11 21 -11 11 0 17 -4 14 -10 -3 -5 3 -10 13 -10 11 0 23
-7 26 -16 4 -10 12 -14 23 -10 10 4 14 4 10 0 -10 -10 13 -35 26 -27 6 4 7 1
3 -6 -5 -8 0 -14 13 -18 12 -3 21 -10 21 -17 0 -6 5 -4 10 4 9 14 12 7 9 -17
-1 -9 70 -41 94 -42 9 -1 17 -5 17 -11 0 -5 4 -10 10 -10 5 0 12 17 15 38 4
20 13 50 20 67 8 16 12 32 9 36 -2 4 5 10 16 14 10 3 43 32 72 64 29 32 61 61
71 64 10 4 16 11 13 16 -3 5 1 12 10 15 11 4 15 2 11 -8 -4 -10 -1 -13 8 -9 8
3 12 10 8 17 -4 6 2 4 12 -4 10 -8 16 -10 12 -4 -4 7 11 10 46 8 29 -1 53 -3
55 -4 1 -2 5 -3 10 -4 4 -1 32 -14 61 -29 30 -15 63 -25 72 -22 10 3 21 0 25
-6 4 -8 3 -9 -4 -5 -7 4 -12 3 -12 -2 0 -5 12 -15 28 -23 15 -8 45 -26 66 -42
27 -19 42 -24 47 -16 4 8 9 4 13 -9 5 -14 13 -19 27 -17 11 2 17 0 14 -4 -2
-5 2 -14 10 -21 8 -7 15 -10 15 -6 0 3 9 -3 20 -14 11 -11 27 -20 35 -20 8 0
15 -5 15 -11 0 -6 9 -9 20 -6 11 3 18 1 15 -3 -3 -5 -1 -11 4 -14 5 -3 12 1
15 9 4 11 -4 20 -22 28 -15 6 -29 15 -32 18 -10 14 -209 134 -309 187 -90 48
-112 55 -170 58 -36 2 -73 1 -81 -2z"/>
<path d="M5342 9026 c-18 -6 -30 -15 -25 -20 4 -5 3 -6 -4 -2 -18 10 -82 -34
-140 -97 -54 -60 -74 -101 -45 -95 9 2 17 9 17 15 0 7 29 39 65 72 36 34 60
61 53 61 -6 0 -14 -6 -16 -12 -3 -8 -6 -6 -6 5 -1 16 15 22 48 18 8 -2 10 2 5
10 -4 7 -3 10 3 6 6 -4 33 2 62 12 28 11 51 17 51 14 0 -3 8 1 17 8 9 8 14 9
10 3 -4 -8 11 -14 45 -18 29 -4 58 -12 65 -18 7 -6 20 -8 28 -4 10 3 15 -1 15
-12 0 -13 2 -14 9 -3 5 7 14 10 20 7 6 -4 11 -5 11 -2 0 12 -100 55 -114 50
-9 -3 -16 -1 -16 5 0 15 -115 13 -158 -3z"/>
<path d="M897 9003 c-48 -22 -57 -30 -53 -46 4 -15 2 -17 -6 -9 -9 9 -27 -3
-69 -45 -32 -31 -56 -60 -54 -64 3 -4 -2 -10 -11 -13 -13 -5 -14 -9 -4 -21 8
-9 8 -15 2 -15 -23 0 -42 -33 -42 -71 0 -22 -4 -38 -9 -35 -8 5 -45 -150 -56
-239 -26 -200 -55 -471 -57 -533 -2 -43 -7 -80 -13 -84 -6 -4 -10 -115 -9
-290 0 -303 10 -379 48 -386 11 -3 16 0 12 7 -8 12 -13 37 -21 96 -17 123 -19
185 -12 335 4 91 8 217 9 280 1 81 4 102 8 70 l7 -45 3 60 c2 33 4 77 4 98 0
20 3 37 6 37 4 0 12 57 19 128 16 162 22 211 28 242 3 14 5 45 5 69 0 28 3 39
9 30 7 -11 9 -9 9 6 0 56 50 217 70 230 6 3 10 18 10 32 0 15 3 23 6 20 11
-10 46 14 41 28 -3 7 0 12 6 11 7 0 13 3 14 8 1 4 18 19 37 32 20 14 36 29 36
34 0 6 9 10 19 10 11 0 23 5 26 10 3 6 15 10 26 10 11 0 18 3 16 8 -3 4 9 7
26 6 18 -1 35 4 39 10 5 8 8 7 8 -1 0 -7 11 -13 25 -13 14 0 25 6 25 13 0 10
-18 14 -62 15 -49 2 -76 -4 -121 -25z"/>
<path d="M1779 8904 c115 -229 192 -498 246 -864 17 -115 45 -409 45 -478 l0
-42 -27 17 c-392 250 -834 732 -984 1071 -33 74 -44 85 -53 55 -22 -77 -65
-334 -54 -323 3 3 18 65 33 138 16 72 30 130 32 128 3 -2 -3 -56 -11 -119 -31
-223 -67 -675 -73 -912 -5 -202 -3 -250 11 -305 42 -169 303 -608 567 -952 11
-16 18 -28 16 -28 -14 0 -192 234 -291 384 -200 301 -303 498 -331 634 -9 40
-15 136 -17 237 -1 132 -3 153 -8 95 -12 -137 -3 -299 19 -378 47 -161 248
-516 428 -755 25 -33 43 -60 41 -62 -5 -4 -269 114 -385 173 -100 51 -148 67
-108 36 37 -27 268 -141 395 -194 126 -52 150 -69 212 -153 l21 -29 -59 7
c-206 23 -408 75 -601 154 -117 48 -359 167 -435 213 -20 13 -39 20 -42 17
-17 -17 139 -358 264 -575 92 -162 203 -326 256 -379 82 -81 429 -299 607
-380 31 -15 57 -28 57 -30 0 -1 -38 -24 -84 -49 -46 -26 -105 -67 -132 -92
l-49 -44 67 49 c89 65 193 123 215 119 12 -2 -13 -23 -72 -60 -50 -31 -105
-70 -124 -85 -29 -25 -31 -29 -13 -29 11 0 18 4 16 8 -10 16 24 7 47 -13 13
-12 25 -16 27 -10 2 6 8 9 12 6 5 -3 7 -12 4 -19 -3 -8 -1 -17 5 -21 6 -3 11
-1 11 4 0 6 7 11 16 11 10 0 14 -6 11 -14 -7 -17 20 -30 27 -13 3 9 5 8 5 -1
1 -7 5 -10 11 -7 5 3 10 1 10 -4 0 -6 -4 -11 -10 -11 -5 0 -10 -5 -10 -11 0
-6 8 -8 19 -4 11 3 25 -1 34 -10 9 -8 23 -15 32 -15 9 0 14 -4 11 -9 -3 -5 3
-11 14 -14 11 -3 18 -1 15 3 -3 5 -1 11 5 15 5 3 10 -1 10 -9 0 -18 10 -21
155 -37 61 -7 119 -15 130 -20 48 -17 -25 -21 -213 -10 -108 6 -264 11 -347
10 -145 -2 -141 -2 110 -14 143 -7 291 -16 329 -20 l68 -8 -58 -31 c-70 -37
-258 -164 -262 -177 -5 -12 1 -11 35 2 103 39 386 51 588 24 105 -14 110 -16
134 -47 13 -18 46 -53 71 -78 40 -38 50 -56 65 -115 10 -38 28 -87 42 -107 13
-21 22 -38 19 -38 -2 0 -30 16 -62 35 -92 56 -129 46 -239 -61 -28 -27 -67
-62 -88 -77 -20 -15 -49 -51 -63 -80 -15 -29 -47 -81 -73 -117 l-46 -65 0 -85
c0 -96 21 -168 63 -224 15 -19 40 -56 56 -81 73 -118 269 -174 399 -113 43 20
57 23 57 13 0 -8 -11 -22 -24 -30 -14 -9 -32 -27 -40 -41 -15 -22 -15 -27 -1
-61 9 -21 34 -66 57 -101 37 -57 40 -65 28 -87 -10 -19 -11 -30 -2 -50 7 -14
12 -27 12 -29 0 -2 -19 -6 -42 -10 -24 -4 -79 -22 -123 -41 l-80 -35 -160 3
c-137 2 -165 -1 -192 -16 -18 -10 -33 -22 -33 -27 0 -6 37 -49 82 -96 47 -49
78 -88 72 -93 -5 -5 -41 -36 -81 -70 l-72 -61 -72 43 -73 43 -109 -66 c-103
-61 -217 -151 -217 -171 0 -5 12 -9 27 -9 32 0 202 -55 227 -73 16 -12 11 -17
-42 -54 -85 -61 -87 -64 -73 -126 6 -29 22 -75 35 -104 l24 -51 -30 -29 c-16
-15 -38 -42 -49 -60 -19 -31 -19 -32 -1 -81 23 -59 100 -191 154 -263 22 -28
36 -55 31 -59 -4 -4 -35 -27 -68 -52 -125 -94 -265 -261 -280 -333 -6 -26 -2
-24 25 19 33 50 60 83 60 71 0 -3 6 0 14 7 8 7 13 17 13 23 -1 5 8 11 21 13
24 4 29 17 10 26 -7 3 -3 3 9 1 12 -3 24 -1 28 5 3 5 1 10 -6 10 -6 0 5 11 26
25 24 17 44 24 57 19 17 -5 20 -3 15 10 -8 20 2 20 32 -1 13 -9 40 -16 59 -15
20 1 42 -4 50 -11 13 -10 14 -9 4 9 -10 20 -9 21 20 18 42 -5 145 -64 218
-125 62 -52 73 -69 42 -69 -10 0 -22 -4 -27 -9 -18 -15 -176 -49 -255 -54 -33
-3 -28 -4 20 -5 36 -1 108 5 160 13 52 8 111 16 130 19 19 3 -5 -6 -55 -19
-107 -29 -73 -26 179 18 219 38 206 29 232 174 9 54 22 96 33 108 13 13 17 30
14 50 l-4 30 123 37 c162 48 238 81 238 105 0 15 -11 59 -45 188 -6 25 40 85
54 70 5 -6 19 -56 31 -113 12 -57 27 -124 35 -148 11 -39 11 -53 0 -91 -17
-56 -11 -73 54 -151 28 -34 51 -64 51 -67 0 -3 -20 -32 -45 -66 -25 -34 -45
-65 -45 -70 0 -12 133 -87 228 -129 l85 -36 44 -120 c24 -65 45 -139 48 -163
2 -24 9 -49 15 -55 5 -5 10 -22 10 -37 0 -37 66 -94 200 -173 149 -87 258
-136 306 -136 35 0 46 6 95 57 91 94 160 193 152 217 -7 22 -13 87 -13 145 0
18 -5 40 -11 47 -7 9 -7 24 0 51 6 21 11 62 11 90 l0 53 48 24 c55 28 123 93
85 82 l-22 -7 19 45 c27 59 37 136 20 136 -7 0 -11 3 -7 6 3 4 23 -3 43 -15
46 -28 52 -22 15 13 l-30 28 40 50 c46 59 50 77 10 47 -17 -12 -34 -18 -42
-14 -7 5 -10 4 -6 -2 9 -14 -61 -76 -74 -67 -6 3 -17 -2 -24 -12 -13 -17 -14
-17 -15 -2 0 9 4 20 10 23 5 3 10 13 10 21 0 8 -4 13 -8 10 -5 -3 -9 8 -10 24
-1 31 -20 75 -29 66 -3 -3 0 -12 7 -21 10 -12 10 -15 0 -15 -9 0 -8 -6 4 -19
11 -12 14 -21 7 -26 -10 -6 -15 1 -12 18 0 4 -3 7 -9 7 -5 0 -10 -6 -10 -14 0
-14 -29 -30 -38 -21 -3 3 -1 5 5 5 16 0 25 31 14 44 -7 8 6 29 44 69 41 43 55
52 58 39 2 -9 4 -1 3 18 0 38 41 130 58 130 6 0 11 12 12 28 0 15 9 57 20 94
l19 68 -66 67 -66 68 19 54 c20 57 17 77 -6 45 -8 -10 -16 -17 -18 -14 -3 3
-20 26 -38 53 -18 26 -36 48 -39 48 -23 5 -51 5 -51 0 0 -3 5 -13 10 -21 9
-13 11 -13 19 -1 7 11 10 9 13 -10 2 -13 8 -23 14 -22 13 2 13 -113 0 -141 -7
-13 -6 -17 2 -12 31 19 15 -22 -48 -120 -126 -200 -194 -287 -320 -415 -131
-133 -170 -163 -170 -133 0 10 3 14 7 11 12 -12 41 23 36 44 -4 14 0 19 13 18
11 0 14 -3 7 -6 -15 -5 -17 -23 -4 -23 15 0 22 33 9 42 -10 6 -9 8 4 8 9 0 18
-5 20 -10 2 -6 9 -1 16 11 12 19 11 20 -10 15 -13 -3 -17 -3 -10 0 16 8 15 24
-2 24 -7 0 -16 10 -19 21 l-6 21 20 -21 c25 -27 49 -28 42 -1 -4 16 0 20 21
20 17 0 26 5 26 16 0 9 8 18 19 21 12 3 17 11 14 22 -4 14 1 18 26 16 27 -2
29 0 19 19 -10 19 -10 20 6 7 14 -12 16 -12 10 3 -5 12 -2 15 10 10 17 -7 18
11 1 61 -3 11 1 8 10 -7 19 -34 24 -35 21 -4 -2 17 1 23 10 19 8 -3 14 0 14 6
0 6 7 8 17 4 10 -4 14 -2 10 4 -4 6 -2 13 4 15 9 3 9 9 1 25 -10 18 -15 20
-37 10 -14 -7 -25 -16 -25 -20 0 -5 5 -5 10 -2 6 3 10 -1 10 -11 0 -13 -3 -14
-15 -4 -22 18 -58 3 -52 -23 4 -18 3 -19 -5 -7 -11 16 -30 8 -248 -105 -124
-64 -184 -83 -206 -64 -7 6 -17 8 -22 5 -4 -3 -15 4 -22 15 -8 10 -20 19 -27
19 -7 0 -13 5 -13 10 0 6 -7 10 -17 10 -9 0 -14 3 -10 6 8 9 -14 30 -41 38
-12 4 -22 14 -22 22 0 8 -4 13 -9 10 -5 -3 -12 1 -15 9 -3 9 -17 20 -31 25
-15 6 -23 14 -20 20 3 5 1 10 -5 10 -8 0 -10 20 -7 65 4 52 3 65 -9 65 -8 0
-14 -4 -14 -8 0 -5 -7 -17 -15 -28 -9 -11 -6 2 7 31 29 69 103 187 190 302 98
131 101 140 26 63 -36 -36 -100 -117 -143 -180 -81 -119 -114 -162 -77 -99 12
20 22 44 22 53 0 10 5 14 10 11 6 -3 10 -2 10 4 0 24 -24 21 -54 -8 -18 -17
-36 -28 -40 -24 -4 4 -12 1 -17 -7 -8 -12 -10 -10 -6 7 4 16 0 23 -10 23 -8 0
-11 5 -8 10 4 6 2 16 -3 23 -5 7 -9 19 -10 27 0 8 -7 60 -17 115 -12 71 -16
157 -16 300 1 183 2 201 20 218 26 27 56 17 125 -39 31 -25 60 -42 66 -39 9 6
13 -5 26 -80 6 -37 7 -38 15 -16 11 28 13 168 4 194 -10 24 8 22 63 -9 63 -36
108 -41 124 -14 7 11 20 20 30 20 9 0 19 4 23 9 10 17 106 5 200 -24 123 -37
237 -98 303 -162 l54 -54 -4 -57 c-9 -112 -112 -310 -273 -526 -36 -49 -58
-83 -48 -75 114 89 303 288 303 318 0 6 5 11 10 11 6 0 9 3 8 8 -1 4 11 21 27
39 16 18 30 42 32 53 2 12 19 55 39 95 26 53 34 82 30 100 -3 13 -31 66 -62
117 -50 86 -54 97 -49 138 3 25 1 60 -4 78 -9 31 -8 33 10 27 18 -6 19 -4 11
12 -6 11 -32 39 -57 62 -34 31 -44 46 -36 54 6 6 11 24 11 39 0 15 9 37 19 47
11 11 17 28 14 39 -3 15 6 25 41 46 58 34 70 56 63 121 -5 49 -4 53 21 66 15
7 30 15 33 16 3 2 18 -15 33 -37 21 -32 24 -44 16 -60 -39 -74 25 -233 145
-357 64 -67 73 -73 110 -73 22 0 60 5 85 11 25 6 74 11 110 12 82 3 132 27
224 106 44 39 92 69 135 86 109 44 128 59 145 118 9 29 34 86 56 127 91 168
109 215 100 254 -11 51 -34 82 -87 119 -113 78 -128 93 -125 120 8 73 -34 138
-105 162 -36 12 -38 16 -43 62 l-5 48 -73 7 c-102 10 -120 22 -167 103 -51 90
-132 171 -218 219 -56 32 -72 46 -92 87 -14 27 -36 56 -50 65 -24 16 -28 15
-111 -25 l-85 -41 -50 25 c-55 28 -72 25 -107 -20 -13 -16 -26 -23 -36 -19 -9
3 -15 9 -15 13 1 3 30 33 65 65 60 55 68 60 138 72 70 12 430 49 559 57 106 7
85 21 -106 67 -65 16 -145 32 -178 36 -33 4 -57 10 -52 14 12 11 359 124 518
169 170 47 508 123 663 148 61 10 112 21 112 24 0 12 -57 31 -185 64 -154 40
-324 65 -435 65 -44 0 -80 3 -80 8 1 4 76 38 168 77 210 87 521 243 587 293
60 45 193 217 310 399 47 73 85 134 85 137 0 2 -13 -8 -30 -22 -16 -15 -30
-32 -30 -38 0 -7 -7 -15 -16 -18 -14 -5 -15 -4 -4 9 8 10 9 15 1 15 -6 0 -11
6 -11 14 0 8 -11 17 -25 20 -14 4 -25 10 -25 15 0 5 10 7 23 3 21 -5 21 -4 5
15 -20 22 -23 33 -7 33 5 0 7 -4 4 -10 -7 -11 8 -14 17 -4 10 10 -35 84 -51
84 -14 0 -14 1 -1 10 14 9 7 15 -14 11 -5 -1 -3 6 5 15 12 15 12 16 -6 11 -11
-3 -54 -11 -95 -17 -41 -6 -87 -13 -102 -16 -49 -10 -30 14 22 27 84 21 49 21
-86 -2 -189 -32 -614 -32 -614 0 0 23 90 94 177 139 108 56 212 88 312 99 53
5 60 8 41 15 -56 21 -261 -33 -373 -98 -32 -19 -60 -34 -62 -34 -3 0 26 44 64
98 105 150 140 209 192 317 56 114 65 158 15 73 -44 -79 -47 -80 -25 -8 20 64
41 254 38 342 -2 35 -8 56 -22 68 -18 18 -16 46 4 35 5 -4 9 -2 9 4 0 15 -18
23 -25 11 -4 -7 -12 -7 -26 0 -22 13 -26 42 -4 34 8 -4 12 -11 8 -18 -4 -8 -2
-8 7 1 21 19 1 35 -39 30 -20 -3 -28 -3 -18 -1 22 7 21 10 -3 44 -11 15 -16
31 -12 35 4 4 -5 6 -20 3 -24 -4 -26 -3 -18 13 6 10 10 25 10 35 0 14 -2 14
-16 3 -17 -14 -20 -11 -49 42 -10 18 -11 29 -4 36 8 8 7 13 -2 18 -8 5 -10 4
-5 -3 4 -7 3 -12 -3 -12 -6 0 -15 9 -22 21 -8 15 -14 18 -22 10 -15 -15 -27
-14 -21 2 6 17 56 21 65 5 5 -7 10 -10 13 -7 3 2 -11 18 -30 35 -31 29 -49 33
-22 6 8 -8 8 -12 1 -12 -16 0 -36 28 -28 40 3 5 1 10 -5 10 -6 0 -8 5 -5 10 3
6 0 10 -7 10 -26 0 -40 17 -33 39 3 12 11 18 17 15 7 -5 8 -2 4 5 -5 7 -14 10
-22 7 -12 -4 -12 -2 -4 14 9 16 8 18 -6 13 -10 -3 -2 16 22 53 40 62 137 261
148 304 4 14 -19 -24 -51 -85 -132 -248 -250 -403 -398 -524 -92 -75 -305
-224 -312 -218 -2 3 14 45 37 94 87 182 130 349 130 502 0 81 -17 261 -26 270
-10 10 -10 -12 -1 -139 12 -165 -1 -287 -44 -424 -36 -115 -87 -229 -99 -221
-5 3 -12 -20 -15 -50 -7 -56 -19 -71 -80 -103 -20 -10 -20 -7 -20 136 0 143
-1 149 -30 206 -25 50 -30 56 -35 36 -5 -22 -6 -22 -19 6 -25 53 -131 375
-131 397 0 36 -43 118 -133 254 -91 140 -233 321 -269 345 -13 9 -43 34 -68
57 -42 40 -274 191 -292 191 -13 0 -10 -10 42 -156 97 -274 160 -543 160 -683
l0 -56 -28 51 c-96 172 -243 341 -371 422 -160 103 -402 218 -662 315 -228 85
-590 174 -782 192 l-78 7 40 -78z m81 -64 c84 -167 167 -444 209 -700 30 -187
60 -685 43 -730 -7 -19 -11 4 -16 95 -33 591 -112 998 -258 1329 -50 115 -54
126 -33 101 9 -11 34 -54 55 -95z m1517 -493 c90 -86 170 -197 255 -352 58
-106 81 -160 50 -115 -9 13 -26 35 -37 48 l-21 24 -32 -30 c-17 -16 -34 -27
-37 -23 -3 3 -3 -2 1 -12 15 -41 -18 -11 -73 66 -177 245 -272 402 -278 461
-1 12 -3 21 -5 21 -1 0 -3 10 -4 22 -3 22 -3 22 48 -5 28 -15 88 -62 133 -105z
m-2902 -1857 c87 -189 233 -440 263 -451 19 -7 22 -12 13 -23 -9 -11 -9 -16 0
-22 8 -4 9 -3 5 4 -4 7 -1 12 8 12 8 0 21 -10 27 -22 7 -13 35 -53 62 -91 45
-62 50 -66 62 -50 11 15 16 16 27 5 11 -11 10 -12 -4 -7 -25 10 -23 -12 2 -25
25 -13 27 -35 3 -25 -16 5 -16 4 -3 -7 8 -7 20 -20 27 -28 11 -13 12 -13 7 3
-3 9 -2 17 2 18 5 0 17 2 26 4 10 2 16 -2 15 -8 -1 -7 6 -11 15 -11 10 1 15
-2 12 -7 -9 -15 -32 -10 -43 9 -9 14 -10 14 -11 2 0 -21 20 -40 43 -40 10 0
15 -4 12 -10 -3 -5 -2 -10 4 -10 6 0 8 -7 4 -16 -5 -14 -3 -15 17 -4 15 8 20
8 16 1 -5 -7 2 -11 16 -12 15 0 18 -3 8 -6 -8 -3 -18 -11 -22 -16 -4 -7 -16
-4 -33 7 -15 10 -24 13 -20 7 19 -32 257 -171 551 -323 99 -51 191 -101 205
-110 23 -17 23 -17 -21 -4 -85 24 -318 135 -474 223 -139 80 -334 211 -388
260 -78 74 -196 256 -331 514 -67 128 -187 388 -187 406 0 22 35 -38 85 -147z
m2926 -232 c154 -213 234 -411 245 -608 l5 -95 -156 -165 c-86 -90 -197 -217
-246 -282 -50 -65 -94 -118 -99 -118 -5 0 -12 5 -15 10 -3 6 -11 10 -18 10 -6
0 0 -12 14 -26 31 -31 46 -26 115 38 43 39 44 40 44 16 0 -71 84 -308 109
-308 5 0 -1 19 -14 43 -27 48 -69 189 -79 262 l-6 50 72 72 c40 39 114 103
163 142 97 77 109 77 86 -5 -6 -21 -8 -40 -6 -42 2 -3 29 13 60 34 31 21 64
45 75 52 17 12 24 9 65 -34 62 -64 92 -121 75 -147 -10 -17 -10 -19 3 -14 21
8 39 -100 35 -208 l-3 -80 -115 -22 c-157 -30 -395 -86 -383 -90 6 -2 89 14
184 36 96 22 207 45 247 51 65 11 74 15 84 39 10 26 5 211 -7 262 -6 24 -3 27
70 52 88 30 139 58 231 127 36 28 67 50 69 50 2 0 -5 -16 -17 -36 -14 -24 -21
-54 -22 -92 -1 -78 17 -117 65 -139 33 -15 39 -23 39 -50 0 -57 -7 -63 -48
-49 -41 15 -76 7 -85 -18 -6 -15 -4 -15 17 -1 22 15 28 14 79 -11 90 -45 142
-12 138 87 -4 129 -83 205 -154 149 -14 -11 -28 -20 -32 -20 -11 0 1 100 13
112 8 8 24 6 57 -7 64 -24 70 -10 7 17 -28 13 -52 25 -52 28 0 3 12 20 28 38
l27 33 59 -36 c32 -20 61 -33 64 -31 5 6 -37 43 -72 63 -20 11 -20 12 -2 19
10 4 32 2 47 -3 38 -15 38 1 1 16 -16 7 -42 9 -58 5 l-29 -7 26 29 c15 16 39
48 54 72 22 34 32 41 49 36 96 -28 155 -142 163 -314 6 -120 -10 -207 -53
-292 -48 -95 -168 -190 -302 -238 -63 -23 -80 -22 -149 6 -9 4 -13 -4 -13 -23
0 -46 -65 -169 -117 -221 -96 -96 -379 -246 -608 -323 -94 -32 -108 -34 -230
-33 -119 0 -141 3 -265 38 -186 52 -279 90 -330 133 -42 36 -90 119 -90 158
-1 39 -79 253 -143 390 -100 214 -127 311 -127 457 l0 67 31 -9 c36 -11 104
-49 172 -98 46 -33 47 -35 28 -48 -52 -37 -60 -197 -16 -334 31 -98 88 -222
109 -239 12 -10 41 -10 133 -1 194 18 183 14 183 63 0 23 -11 84 -25 135 -30
112 -30 105 -6 92 29 -15 41 -12 41 10 0 11 -6 20 -14 20 -20 0 -96 85 -268
300 -201 253 -284 343 -309 335 -18 -6 -18 -4 -3 32 22 54 128 265 161 321
l28 47 12 -140 c7 -77 20 -161 28 -186 32 -96 196 -302 376 -473 55 -53 104
-96 109 -96 4 0 3 21 -2 48 -12 66 -12 372 2 462 16 114 47 200 131 370 72
144 192 340 208 340 4 0 28 -28 52 -62z m-1661 -520 c24 -140 78 -334 113
-410 44 -95 78 -129 285 -283 89 -66 159 -121 157 -123 -6 -6 -187 110 -320
204 -120 85 -142 114 -185 242 -43 128 -92 442 -70 442 4 0 13 -33 20 -72z
m2270 -246 c-12 -92 -37 -178 -74 -249 l-22 -44 -32 50 c-18 27 -48 63 -67 80
l-35 31 39 35 c22 20 50 44 64 55 25 20 25 20 30 0 3 -13 14 -20 30 -20 28 0
37 20 37 89 0 28 6 52 17 63 24 27 27 11 13 -90z m1632 28 c-130 -80 -570
-272 -775 -340 -137 -45 -70 -12 181 90 261 105 523 219 577 252 17 10 35 18
40 18 6 0 -5 -9 -23 -20z m-3003 -412 c57 -50 88 -84 80 -87 -38 -12 -38 -67
0 -148 16 -34 39 -71 50 -82 23 -23 71 -29 71 -9 0 32 20 -13 26 -59 l6 -51
-43 -6 c-24 -3 -89 -9 -144 -15 -121 -12 -116 -16 -176 137 -77 198 -88 336
-32 402 30 36 23 39 162 -82z m1775 62 c49 -59 60 -147 21 -185 -24 -25 -65
-34 -65 -15 0 6 4 10 9 10 14 0 23 68 12 88 -5 9 -26 26 -47 37 -48 25 -52 38
-20 70 33 33 59 32 90 -5z m1196 -104 c0 -2 -30 -9 -67 -16 -271 -46 -736
-168 -973 -254 -68 -25 -126 -43 -129 -41 -18 18 354 148 619 216 228 59 550
114 550 95z m-3396 -317 c49 -7 77 -17 81 -27 5 -12 -2 -14 -42 -8 -204 28
-384 28 -545 0 l-33 -6 33 22 c21 14 53 24 90 27 31 2 58 6 61 8 8 8 282 -4
355 -16z m2186 -304 c7 -9 10 -19 6 -23 -4 -4 -12 1 -17 11 -9 16 -13 16 -39
2 -35 -18 -161 -160 -232 -260 -117 -165 -240 -391 -264 -486 -14 -54 -14 -64
0 -107 9 -26 38 -85 65 -132 27 -46 48 -86 46 -89 -15 -14 -207 186 -241 251
-13 25 -12 34 6 89 29 85 78 180 144 279 31 46 54 85 52 87 -7 7 -83 -93 -122
-160 -40 -68 -98 -204 -109 -254 -4 -23 -2 -39 9 -55 9 -12 16 -32 16 -43 0
-12 20 -62 44 -112 56 -115 55 -116 -99 -132 -171 -18 -195 -22 -195 -31 0 -5
20 -21 45 -36 25 -14 45 -30 45 -36 0 -5 4 -7 9 -4 5 3 12 -1 15 -10 3 -8 10
-12 16 -9 5 3 7 0 4 -8 -9 -24 -42 -35 -209 -67 -201 -40 -305 -49 -323 -27
-11 13 3 25 102 87 64 40 135 90 158 112 33 31 36 36 14 23 -87 -52 -99 -58
-92 -47 10 17 9 16 -106 -24 -160 -55 -251 -74 -294 -62 -20 5 -34 11 -32 12
1 2 44 25 93 51 50 27 135 78 190 115 55 37 134 86 175 111 41 24 98 66 125
94 89 88 276 332 422 548 94 140 202 274 251 311 39 30 44 5 12 -58 -17 -32
-30 -67 -30 -77 0 -10 -4 -21 -10 -24 -5 -3 -10 -13 -10 -22 0 -9 39 22 93 74
61 59 113 100 156 121 72 36 93 39 111 17z m-432 -81 c22 -6 21 -8 -21 -58
-24 -28 -62 -78 -85 -110 l-42 -59 -69 -1 -69 -1 73 75 c81 82 92 105 20 44
-154 -131 -152 -130 -233 -148 -42 -10 -99 -27 -127 -37 -72 -27 -69 -24 15
22 89 48 94 53 55 44 -17 -4 -34 -13 -40 -19 -5 -7 -20 -12 -32 -13 -60 -2
-62 -3 -57 -18 4 -10 0 -15 -12 -15 -16 0 -17 2 -4 11 17 12 -32 5 -89 -13
l-34 -11 24 -12 c18 -10 28 -11 39 -2 12 9 13 9 3 -3 -24 -27 -13 -32 23 -10
19 12 37 21 38 19 2 -2 -15 -16 -39 -30 l-42 -26 -28 34 c-15 19 -25 37 -22
40 3 2 54 17 114 33 59 15 135 38 168 49 66 24 335 157 393 196 41 26 46 28
80 19z m-1484 -46 c64 -41 153 -124 173 -161 32 -62 22 -122 -24 -153 -24 -15
-26 -14 -81 38 -61 58 -110 94 -117 86 -3 -2 24 -28 60 -58 36 -29 72 -62 80
-73 22 -32 18 -72 -11 -106 -47 -56 -54 -56 -138 1 -42 28 -78 49 -81 47 -2
-3 27 -28 65 -57 62 -46 70 -56 70 -85 0 -36 -40 -87 -68 -87 -9 1 -42 9 -72
20 -30 10 -56 17 -59 15 -6 -7 63 -46 92 -52 36 -7 34 -27 -6 -52 -41 -25 -80
-29 -130 -12 -21 7 -49 10 -62 7 -13 -3 -36 -1 -52 6 -15 7 -35 12 -43 12 -8
1 -27 22 -43 48 -26 41 -29 58 -32 140 -2 63 -1 79 4 50 7 -41 25 -71 36 -60
3 3 -2 24 -10 48 -21 61 -20 70 27 141 33 50 43 60 46 44 9 -48 23 -38 21 15
-3 68 9 91 67 131 26 17 63 50 83 72 77 86 115 92 205 35z m1941 27 c108 -28
209 -106 284 -217 l32 -48 -38 0 c-21 -1 -57 -5 -80 -9 -37 -7 -45 -5 -63 14
-12 13 -49 35 -82 50 -55 25 -69 27 -152 23 -71 -3 -103 -10 -146 -30 -81 -38
-106 -63 -29 -29 90 41 175 55 246 41 58 -10 169 -68 155 -81 -4 -4 -25 -12
-47 -19 -112 -35 -226 -121 -286 -214 -41 -62 -83 -182 -96 -274 l-8 -53 -54
38 c-59 41 -114 126 -125 193 -5 32 -5 32 4 9 6 -14 23 -32 38 -38 l27 -13
-27 25 c-25 24 -27 31 -24 89 3 67 18 103 89 218 54 87 169 241 219 296 46 50
66 54 163 29z m-1673 -222 c21 -11 35 -130 22 -181 -12 -42 -97 -67 -143 -43
-25 14 -16 66 15 86 36 23 57 72 51 117 -5 37 -4 38 21 32 15 -4 30 -9 34 -11z
m1037 -12 c16 -10 -14 -56 -178 -271 -205 -270 -240 -304 -391 -387 l-56 -31
-54 37 c-67 44 -93 89 -85 146 14 103 144 299 240 363 94 62 271 122 417 141
88 12 91 12 107 2z m-648 -38 c27 -14 61 -41 75 -60 l25 -34 -63 -68 c-104
-113 -178 -253 -178 -337 l0 -45 -46 4 c-25 2 -49 8 -52 13 -4 6 -26 16 -50
22 -25 8 -49 23 -59 38 -18 28 -21 95 -5 134 5 14 9 27 9 30 -2 18 148 227
206 288 49 50 70 52 138 15z m-527 -215 c-3 -4 2 -5 10 -2 22 8 20 1 -14 -70
-16 -34 -48 -80 -70 -103 -47 -46 -140 -101 -140 -83 0 7 -7 10 -15 6 -8 -3 2
11 22 32 78 77 118 138 108 165 -3 7 8 18 25 26 17 7 38 24 47 38 12 18 18 21
24 12 4 -7 5 -17 3 -21z m2432 -4 c49 -17 64 -45 64 -117 0 -44 -5 -59 -30
-89 -17 -20 -49 -44 -74 -53 -44 -17 -45 -17 -88 9 -81 47 -174 29 -251 -48
l-34 -34 -17 28 c-22 39 -20 56 14 128 38 80 84 148 116 169 50 32 218 36 300
7z m166 -245 c79 -52 116 -96 120 -141 3 -32 -15 -74 -77 -183 -29 -49 -58
-108 -65 -130 -23 -71 -38 -91 -82 -110 -24 -10 -61 -26 -83 -36 -23 -10 -73
-45 -113 -78 -95 -79 -117 -90 -199 -95 -37 -2 -101 -11 -140 -19 -66 -13 -75
-13 -104 2 -69 37 -199 235 -199 303 0 44 28 95 65 118 18 11 35 20 39 20 3 0
23 -35 45 -77 32 -65 81 -131 81 -111 0 3 -20 48 -45 100 -58 123 -59 153 -4
202 45 41 77 56 120 56 32 0 43 -10 118 -99 24 -29 45 -50 48 -48 2 3 -14 33
-36 67 -22 34 -43 71 -47 82 -22 71 81 168 179 168 49 0 86 -24 163 -107 55
-59 68 -50 20 15 l-36 50 31 6 c19 3 48 24 73 50 22 24 43 44 45 45 3 0 40
-22 83 -50z m-2102 -179 c16 -7 30 -16 30 -20 0 -9 -155 -105 -193 -119 -26
-10 -27 -10 -27 27 0 55 27 136 56 171 l25 30 39 -38 c22 -21 53 -44 70 -51z
m-152 63 c-28 -32 -50 -84 -62 -151 -7 -37 -18 -68 -25 -70 -10 -3 -11 0 -5 9
6 11 5 11 -10 0 -9 -8 -16 -10 -15 -5 4 21 -2 26 -16 14 -12 -10 -18 -8 -35
11 -14 17 -18 18 -14 7 9 -27 -11 -21 -24 6 -19 43 -24 94 -13 129 11 31 17
35 69 47 31 7 62 14 67 15 6 2 30 4 54 4 41 1 43 0 29 -16z m-1204 -1174 c-26
-27 -29 -37 -27 -89 1 -32 10 -96 21 -142 11 -46 23 -99 26 -118 l6 -35 -23
28 c-46 56 -127 230 -127 274 0 13 127 113 144 113 6 0 -3 -14 -20 -31z m149
-67 c7 -36 110 -176 191 -261 93 -96 111 -103 300 -109 98 -3 152 -8 139 -13
-53 -19 -323 -79 -379 -83 -76 -6 -122 13 -190 80 -110 108 -183 243 -166 307
8 31 80 119 91 112 5 -2 11 -17 14 -33z m390 -50 c3 -15 24 -55 46 -89 23 -33
41 -63 41 -66 0 -8 -92 18 -130 38 -19 9 -55 33 -79 53 l-43 35 54 17 c29 9
62 22 73 28 29 16 32 15 38 -16z m2021 -261 l58 -59 -22 -68 c-21 -64 -80
-191 -111 -242 -8 -12 -19 -20 -26 -18 -8 3 -10 -1 -6 -11 4 -11 2 -14 -5 -9
-13 8 -53 -11 -65 -30 -4 -7 -13 -11 -21 -8 -7 3 -44 -25 -83 -61 -39 -36 -76
-65 -82 -65 -6 0 -11 -4 -11 -10 0 -5 -5 -10 -11 -10 -6 0 -29 -13 -52 -28
-70 -47 -130 -72 -193 -78 l-59 -5 30 26 c216 191 309 297 449 510 51 77 104
159 117 182 13 24 26 43 29 43 3 0 32 -27 64 -59z m-2649 15 c-5 -25 0 -46 21
-87 45 -89 106 -182 141 -215 18 -18 33 -37 33 -43 0 -6 5 -11 10 -11 6 0 10
-5 10 -10 0 -9 -52 -9 -88 -1 -7 2 -134 204 -162 259 -34 67 -34 65 14 120 26
29 28 28 21 -12z m1160 -77 c-96 -98 -207 -181 -310 -230 -126 -59 -254 -95
-297 -83 l-30 9 73 41 c66 37 75 39 86 25 9 -11 12 -12 13 -3 0 7 5 10 10 7 6
-3 10 -2 10 3 0 6 9 8 20 5 12 -3 20 0 20 6 0 7 5 9 10 6 6 -4 17 -2 24 4 8 7
18 11 22 9 19 -5 143 65 177 100 73 75 97 104 92 112 -4 7 62 27 125 39 2 1
-18 -22 -45 -50z m38 -108 c22 -89 21 -98 -5 -115 -28 -18 -299 -100 -383
-116 -34 -7 -74 -10 -90 -8 -26 3 -15 11 85 60 140 67 241 132 312 198 29 27
56 49 59 50 3 0 13 -31 22 -69z m195 -208 c10 -21 39 -67 66 -103 53 -72 90
-139 82 -148 -3 -3 -49 38 -101 90 -100 100 -108 118 -83 173 6 14 13 25 15
25 2 0 12 -17 21 -37z m74 -255 c-25 -25 -12 -54 50 -116 13 -12 65 -43 116
-68 52 -25 92 -47 90 -49 -10 -10 -288 109 -337 143 -12 9 -7 21 28 67 31 41
46 54 54 46 8 -8 8 -14 -1 -23z"/>
<path d="M3411 5143 c-49 -40 -33 -197 27 -264 66 -74 151 -8 139 107 -13 123
-102 208 -166 157z"/>
<path d="M3980 8969 c0 -20 60 -68 77 -62 11 4 14 2 9 -5 -4 -7 2 -16 16 -21
13 -5 30 -16 37 -25 7 -9 20 -16 28 -16 8 0 12 -4 8 -9 -3 -6 3 -15 14 -20 19
-11 113 -101 105 -101 -6 0 12 -23 59 -74 22 -22 43 -41 47 -41 5 0 12 -3 16
-7 4 -5 2 -8 -5 -8 -7 0 4 -18 25 -39 27 -27 42 -35 47 -28 5 7 7 3 4 -10 -3
-12 1 -24 8 -26 7 -3 11 3 11 16 -2 30 -15 49 -28 41 -6 -4 -8 -2 -5 3 4 6 -9
25 -28 42 -19 17 -35 34 -35 39 0 4 -13 21 -30 37 -16 16 -42 46 -56 67 -15
21 -63 70 -107 109 -61 52 -86 68 -101 63 -13 -3 -17 -2 -9 3 9 6 -4 20 -42
46 -60 40 -65 42 -65 26z"/>
<path d="M5621 8951 c-10 -6 -5 -12 18 -22 17 -8 31 -20 31 -27 0 -7 7 -15 15
-18 8 -3 23 -20 34 -37 11 -18 28 -41 38 -52 11 -11 20 -24 20 -28 0 -4 4 -18
8 -30 4 -12 9 -33 12 -47 8 -47 45 -184 51 -195 4 -5 8 -19 8 -30 4 -61 7 -66
14 -20 5 37 1 74 -17 145 -13 52 -28 103 -33 112 -6 10 -10 25 -10 33 0 32
-51 115 -104 169 -56 58 -62 61 -85 47z"/>
<path d="M5956 7765 c2 -33 4 -68 4 -78 1 -11 6 -15 13 -10 7 4 6 0 -2 -10
-10 -12 -12 -32 -7 -70 8 -69 8 -236 0 -316 -5 -46 -4 -62 5 -57 16 10 14 -3
-4 -20 -8 -9 -15 -27 -15 -42 0 -55 -56 -256 -96 -349 -16 -36 -18 -56 -3 -30
6 9 16 14 22 11 7 -4 9 -3 4 1 -4 5 -1 15 7 24 17 20 36 77 36 107 0 12 5 24
11 26 5 2 11 20 12 40 1 20 6 33 11 30 5 -3 7 2 3 10 -3 9 -2 19 3 24 15 15
29 128 18 135 -6 4 -5 8 2 11 9 3 14 55 17 197 4 154 3 192 -7 186 -10 -6 -11
-1 -6 19 4 17 2 26 -5 26 -8 0 -8 4 1 15 15 19 5 134 -15 161 -11 16 -12 10
-9 -41z"/>
<path d="M225 7000 c-69 -35 -97 -59 -91 -76 3 -8 0 -11 -8 -8 -15 6 -52 -44
-48 -64 2 -7 -3 -11 -10 -10 -7 2 -12 -3 -11 -9 2 -7 -2 -13 -8 -13 -5 0 -7
-4 -4 -10 3 -5 11 -10 17 -10 6 0 9 3 6 6 -4 3 2 14 13 25 11 11 17 25 13 31
-4 6 -3 8 3 5 13 -8 67 48 59 62 -4 7 -1 8 8 5 9 -3 16 -1 16 5 0 6 7 11 15
11 8 0 15 7 15 15 0 8 3 14 8 14 25 -4 44 3 39 14 -3 8 1 14 9 14 7 0 11 -4 8
-9 -3 -5 5 -6 18 -3 40 10 82 12 109 4 16 -4 32 -2 38 4 8 8 11 6 11 -6 0 -9
7 -17 16 -17 9 0 29 -9 45 -21 16 -11 29 -17 29 -12 0 4 5 0 11 -9 8 -14 22
-18 64 -17 38 1 52 5 47 13 -3 6 -7 13 -7 16 -1 17 -29 70 -37 70 -5 0 -6 -4
-3 -10 3 -5 2 -10 -3 -10 -5 0 -7 -12 -4 -27 4 -24 3 -25 -19 -19 -13 5 -32 8
-41 9 -9 1 -14 5 -12 9 10 16 -80 46 -128 43 -27 -1 -48 2 -48 6 0 20 -79 8
-135 -21z"/>
<path d="M21 6775 c2 -11 0 -26 -4 -32 -5 -7 -5 -13 0 -13 4 0 1 -5 -7 -10
-10 -6 -11 -10 -2 -10 6 0 12 -5 12 -11 0 -5 -4 -8 -8 -5 -5 3 -9 -15 -11 -40
-2 -43 16 -121 41 -182 6 -15 12 -29 13 -32 10 -43 29 -79 37 -74 6 4 9 1 6
-7 -9 -26 126 -309 147 -309 8 0 17 -5 21 -12 5 -8 2 -9 -9 -5 -15 6 -15 3 0
-29 10 -20 22 -33 30 -30 7 3 13 1 13 -4 0 -6 -5 -10 -11 -10 -8 0 -8 -4 1
-14 6 -8 18 -12 27 -9 8 3 11 9 6 12 -4 3 -24 39 -45 79 -20 40 -38 67 -41 60
-3 -7 -6 -3 -6 8 -1 30 -26 75 -36 66 -5 -4 -5 1 -2 11 4 10 -3 38 -17 65 -13
26 -29 60 -35 75 -6 15 -15 26 -19 23 -4 -2 -9 7 -10 22 -1 14 -8 29 -14 33
-7 5 -9 11 -6 15 6 5 -4 39 -37 119 -20 51 -29 151 -17 202 8 34 7 45 -5 55
-12 10 -14 9 -12 -7z"/>
<path d="M6656 6772 c-7 -12 49 -64 58 -55 4 5 6 4 4 -2 -1 -5 9 -26 24 -45
27 -35 53 -89 50 -102 -1 -5 2 -8 8 -8 5 0 6 -7 3 -17 -4 -11 -3 -14 5 -9 7 4
12 2 12 -3 0 -6 -4 -11 -8 -11 -5 0 -9 -16 -10 -35 -2 -46 -31 -145 -43 -145
-5 0 -9 -6 -9 -14 0 -7 -7 -19 -15 -26 -8 -7 -12 -16 -9 -21 3 -5 1 -9 -5 -9
-16 0 -104 -139 -98 -155 4 -10 1 -12 -10 -8 -11 4 -14 3 -9 -5 4 -7 1 -15 -8
-18 -9 -3 -16 -10 -16 -16 0 -5 -7 -16 -16 -25 -8 -9 -13 -22 -10 -30 3 -8 1
-11 -4 -8 -6 4 -15 -7 -21 -24 -6 -17 -15 -28 -20 -25 -5 3 -9 -4 -9 -15 0
-11 -6 -24 -14 -28 -22 -12 -116 -142 -119 -163 -2 -11 -7 -23 -12 -27 -4 -5
-5 -2 -1 5 4 6 4 12 -1 12 -14 -1 -74 -90 -68 -100 3 -6 -1 -10 -9 -10 -9 0
-16 -4 -16 -10 0 -5 -8 -17 -17 -27 -40 -41 -67 -76 -53 -69 13 7 13 6 0 -6
-28 -24 -74 -103 -71 -120 2 -13 -2 -16 -15 -11 -13 5 -16 3 -11 -10 5 -13 1
-17 -14 -17 -16 0 -19 -4 -15 -16 5 -14 4 -15 -9 -4 -11 9 -15 9 -15 1 0 -7
-13 -26 -30 -44 -16 -18 -30 -36 -30 -42 0 -5 -5 -3 -10 5 -7 11 -10 12 -10 2
0 -8 9 -16 20 -19 11 -3 18 -9 15 -13 -3 -4 2 -11 11 -14 8 -3 13 -10 9 -15
-3 -5 -1 -12 5 -16 5 -3 10 0 10 7 0 9 3 9 10 -2 18 -28 10 -1 -10 36 -19 33
-20 38 -5 53 8 10 12 21 8 24 -3 4 0 7 9 7 20 0 120 106 143 150 10 19 35 57
56 84 21 26 36 53 32 59 -3 6 -1 7 5 3 13 -8 35 28 24 39 -4 3 -2 5 5 3 6 -2
36 31 67 72 30 41 59 80 63 85 44 56 81 113 76 119 -3 3 -2 6 4 6 11 0 25 21
131 185 49 76 60 104 37 97 -5 -2 -6 0 -2 5 5 4 16 8 25 8 9 0 21 10 27 23 5
12 13 22 18 22 4 0 5 5 2 10 -3 6 -2 10 4 10 5 0 22 25 36 56 28 59 45 185 30
221 -4 10 -10 26 -12 36 -6 33 -32 74 -79 126 -44 49 -67 61 -78 43z"/>
<path d="M479 5688 c-7 -23 -5 -37 4 -31 7 4 8 0 4 -11 -5 -14 -3 -17 8 -12
11 4 15 -1 15 -19 0 -14 5 -25 10 -25 6 0 10 -7 10 -15 0 -15 176 -205 191
-205 4 0 23 -14 41 -30 18 -17 38 -28 45 -25 7 2 13 -2 13 -10 0 -8 9 -15 21
-15 11 0 18 -4 15 -9 -3 -5 1 -12 10 -15 9 -4 14 -13 10 -21 -3 -10 1 -15 12
-15 15 0 15 -2 2 -10 -8 -5 -11 -10 -6 -10 5 0 19 11 31 24 l21 23 -35 24
c-19 13 -39 23 -43 21 -5 -1 -11 5 -14 13 -4 8 -12 15 -19 15 -7 0 -16 7 -19
16 -3 8 -10 12 -16 9 -6 -3 -13 0 -16 9 -3 9 -12 12 -21 9 -11 -4 -14 -2 -9 5
4 7 -1 15 -13 20 -11 4 -21 12 -21 17 -1 6 -7 9 -13 7 -7 -2 -9 0 -4 4 10 10
-94 115 -106 107 -6 -3 -7 -1 -3 5 4 6 -2 20 -14 32 -11 11 -20 24 -20 28 0 4
-16 23 -35 42 -19 18 -32 37 -29 42 3 4 3 8 0 8 -3 0 -6 -1 -7 -2z"/>
<path d="M799 5128 c-40 -62 -59 -100 -56 -114 3 -15 0 -21 -9 -17 -16 6 -34
-56 -34 -122 0 -64 17 -128 32 -119 7 4 8 3 4 -4 -15 -24 84 -159 107 -145 5
3 7 1 4 -4 -10 -16 16 -34 33 -22 12 8 9 15 -18 39 -18 17 -37 28 -42 25 -6
-3 -7 1 -4 9 4 9 -1 18 -10 22 -9 3 -16 10 -16 15 0 17 -56 99 -63 93 -4 -4
-7 -3 -7 2 0 6 5 15 12 22 9 9 8 12 -5 12 -10 0 -17 8 -17 18 0 14 2 15 10 2
8 -12 10 -10 10 8 0 13 -4 20 -10 17 -5 -3 -10 1 -10 9 0 9 5 16 11 16 6 0 9
7 6 15 -4 8 -2 17 2 19 7 5 17 39 21 74 1 4 8 14 16 23 8 9 11 19 8 22 -4 4 1
10 10 13 13 5 14 9 6 14 -9 6 -7 10 6 14 11 3 28 21 38 40 10 20 26 43 36 53
14 16 15 21 3 31 -10 10 -24 -4 -74 -80z"/>
<path d="M6041 5152 c-1 -13 3 -21 8 -17 6 3 8 -11 5 -35 -3 -22 -1 -40 3 -40
5 0 9 -9 9 -20 0 -11 -5 -20 -10 -20 -5 0 -7 -3 -3 -6 3 -3 -1 -23 -8 -44 -7
-21 -11 -41 -8 -44 4 -3 1 -6 -5 -6 -7 0 -12 -6 -12 -14 0 -25 -132 -147 -185
-172 -40 -18 -128 -37 -222 -46 -6 -1 -8 -8 -5 -17 5 -13 3 -14 -10 -3 -16 13
-102 6 -93 -7 2 -4 -9 -5 -25 -3 -17 2 -38 1 -47 -4 -10 -4 -27 -8 -38 -9 -11
-1 -68 -12 -127 -25 l-108 -23 0 -36 c0 -20 -9 -56 -20 -80 -11 -23 -17 -48
-13 -54 3 -6 1 -7 -6 -3 -7 4 -15 -2 -20 -16 -6 -13 -10 -20 -10 -15 -1 9 -61
-43 -61 -54 0 -4 15 -10 34 -13 41 -8 89 -31 106 -51 7 -8 19 -15 26 -15 8 0
14 -4 14 -8 0 -5 7 -17 15 -28 13 -18 14 -18 10 6 -3 15 0 12 7 -8 6 -19 22
-41 35 -49 12 -8 20 -20 16 -26 -3 -6 -1 -7 5 -3 8 5 12 0 12 -13 0 -12 4 -21
9 -21 5 0 13 -14 16 -31 4 -18 26 -50 49 -73 22 -23 54 -66 70 -96 38 -72 56
-92 78 -87 10 3 18 1 18 -4 0 -5 -5 -9 -11 -9 -8 0 -8 -5 1 -15 7 -8 19 -15
27 -15 8 0 11 -5 7 -12 -4 -6 -3 -8 3 -5 9 5 48 -31 46 -43 -1 -9 62 -135 70
-138 4 -2 5 -7 3 -11 -2 -3 -1 -22 4 -41 l8 -35 2 33 c5 74 3 85 -19 109 -11
12 -17 23 -15 26 7 7 -11 41 -33 63 -10 10 -18 21 -18 25 0 3 -26 33 -58 65
-33 33 -69 79 -82 104 -27 53 -113 152 -125 145 -4 -3 -6 4 -3 15 6 23 -45
110 -65 110 -7 0 -11 4 -8 8 8 13 -94 107 -142 131 -23 12 -48 19 -54 15 -7
-5 -8 -3 -3 6 6 10 4 12 -10 6 -15 -5 -16 -4 -5 9 9 10 16 12 20 5 4 -6 14 -2
27 12 29 33 45 67 37 80 -4 6 -3 8 4 4 13 -8 26 29 16 45 -4 8 -3 9 4 5 8 -5
12 1 12 17 0 14 6 29 13 35 11 9 109 33 192 48 17 3 37 8 45 11 8 3 24 6 35 8
90 9 139 20 160 37 20 16 24 16 19 3 -5 -13 -2 -15 17 -11 13 3 46 8 74 11 57
8 125 33 125 47 0 5 5 6 11 3 14 -9 163 140 154 154 -3 6 -2 11 3 11 30 0 59
228 32 245 -6 4 -7 11 -4 17 4 6 2 8 -4 4 -5 -3 -13 0 -15 6 -3 7 -6 3 -6 -10z"/>
<path d="M1795 4358 c-22 -5 -50 -10 -62 -10 -13 0 -23 -6 -23 -14 0 -8 -5
-14 -11 -14 -5 0 -7 5 -4 10 3 6 -1 10 -9 10 -9 0 -16 -5 -16 -11 0 -5 -5 -7
-10 -4 -6 4 -21 0 -33 -7 -28 -18 -197 -14 -197 5 0 4 -4 7 -10 7 -25 0 -6
-23 33 -40 56 -26 106 -25 200 5 43 14 87 25 99 25 12 0 30 7 40 16 16 16 18
15 24 -1 4 -9 2 -20 -4 -24 -18 -11 -144 -203 -171 -261 -24 -51 -26 -65 -25
-190 1 -105 6 -153 23 -215 24 -92 78 -208 92 -200 5 3 6 0 3 -8 -3 -8 -1 -18
4 -21 24 -15 16 25 -19 97 -21 43 -38 80 -38 82 -1 3 -1 6 -2 8 0 1 -3 15 -5
31 -3 16 -9 37 -14 46 -16 30 -24 250 -10 300 16 60 42 120 53 120 4 0 6 4 3
8 -3 5 7 21 22 37 15 16 27 36 27 45 1 8 6 14 12 13 6 -1 14 4 17 13 3 8 2 12
-4 9 -6 -3 -10 1 -10 10 0 9 5 13 10 10 6 -3 10 -1 10 5 0 6 4 9 9 5 6 -3 8 4
6 16 -3 15 0 19 10 15 9 -3 15 1 15 9 0 8 5 15 11 15 6 0 3 7 -5 16 -17 16
-12 39 5 28 5 -3 7 -10 4 -15 -4 -5 -2 -9 2 -9 10 0 33 21 33 30 0 9 -41 8
-85 -2z"/>
<path d="M1205 2670 c3 -5 1 -10 -6 -10 -8 0 -7 -5 2 -17 11 -13 11 -15 1 -9
-17 10 -55 -23 -47 -41 2 -8 1 -12 -4 -8 -17 10 -36 -68 -36 -145 0 -61 6 -86
28 -136 30 -64 102 -144 110 -122 2 7 5 -18 6 -56 1 -47 -3 -73 -11 -78 -9 -6
-7 -8 7 -6 14 3 20 11 20 30 -1 17 4 24 12 21 15 -6 18 23 3 32 -5 3 -7 12 -3
20 3 8 0 15 -6 15 -6 0 -11 8 -11 18 0 23 -37 55 -53 46 -7 -4 -9 -4 -5 1 10
11 -23 65 -40 65 -7 0 -10 4 -7 10 3 5 -2 35 -11 66 -25 88 -9 170 53 255 28
39 31 48 17 53 -22 8 -26 8 -19 -4z"/>
<path d="M4683 2224 c3 -34 1 -66 -3 -71 -4 -4 -12 -22 -18 -39 -9 -28 -6 -37
19 -75 16 -24 29 -50 29 -56 0 -7 4 -13 9 -13 5 0 7 -9 4 -20 -3 -11 -1 -20 5
-20 6 0 8 -8 6 -17 -2 -10 -5 -43 -7 -73 -3 -45 0 -58 16 -72 11 -10 17 -18
13 -18 -3 0 0 -10 8 -23 61 -92 61 -260 1 -362 -6 -11 -11 -24 -10 -30 0 -5 5
-32 10 -60 4 -27 7 -54 5 -60 -4 -16 -22 -89 -24 -102 -1 -7 -10 -21 -21 -33
-14 -15 -16 -23 -7 -32 6 -6 15 -8 19 -4 4 4 1 11 -7 16 -13 9 -13 10 0 10 24
0 68 74 50 85 -12 7 -2 58 13 67 9 5 9 8 1 8 -14 0 -24 59 -12 66 4 3 8 15 8
26 0 12 12 51 26 86 23 57 25 76 22 159 -1 52 -7 97 -13 101 -5 4 -10 12 -11
17 -1 22 -26 75 -35 75 -5 0 -9 5 -9 12 0 6 -8 20 -17 31 -10 11 -12 17 -5 13
9 -5 12 3 12 28 0 19 -6 37 -12 39 -10 4 -10 8 1 15 18 13 7 60 -30 138 -23
47 -28 66 -21 85 5 13 10 56 11 95 2 59 -1 71 -14 71 -13 0 -15 -11 -12 -63z"/>
<path d="M2740 949 c0 -6 -4 -8 -8 -5 -5 3 -19 -5 -30 -17 -68 -70 -128 -97
-222 -97 -54 0 -69 -3 -64 -12 5 -9 2 -8 -9 1 -14 11 -27 12 -77 1 -33 -7 -57
-17 -54 -22 4 -6 -6 -8 -22 -5 -16 2 -51 -2 -79 -8 -36 -9 -43 -13 -25 -15 21
-2 19 -4 -10 -9 -19 -4 -41 -4 -49 0 -17 8 -53 0 -46 -11 2 -4 -26 -8 -63 -8
-82 -2 -112 -5 -112 -12 0 -3 -87 -5 -193 -4 -204 1 -242 8 -349 59 -39 19
-48 20 -52 8 -9 -21 107 -72 206 -89 171 -31 582 11 868 90 8 3 34 5 58 5 29
1 41 5 36 12 -4 8 -1 8 12 2 58 -29 159 0 249 72 49 39 70 52 62 38 -7 -11 74
-92 112 -113 13 -6 32 -9 43 -7 14 4 18 1 14 -8 -3 -9 9 -18 36 -27 50 -17 50
-17 83 -138 14 -52 31 -98 38 -102 7 -4 9 -8 4 -8 -10 0 17 -48 45 -81 17 -20
28 -25 43 -19 18 7 19 8 3 15 -10 4 -18 13 -18 19 0 7 -13 25 -30 41 -16 16
-30 39 -30 51 0 12 -5 24 -11 26 -6 2 -11 16 -11 31 0 15 -4 24 -9 21 -5 -3
-9 11 -9 31 0 20 -4 34 -9 31 -5 -3 -11 1 -14 9 -4 9 -1 12 9 8 7 -3 14 0 14
6 0 6 -6 10 -12 8 -7 -1 -12 4 -10 12 2 8 -3 18 -10 22 -10 7 -10 9 0 9 44 0
-62 52 -113 55 -5 0 -19 10 -32 23 -12 12 -29 22 -38 22 -8 0 -15 6 -15 13 0
16 -68 81 -87 83 -7 1 -13 -2 -13 -7z"/>
<path d="M4545 860 c-4 -6 -3 -41 1 -78 12 -113 12 -122 2 -122 -6 0 -7 -7 -4
-16 4 -9 2 -22 -3 -28 -5 -6 -11 -47 -15 -91 -7 -104 -7 -105 -20 -105 -6 0
-5 -4 3 -9 11 -7 9 -10 -8 -16 -16 -5 -19 -10 -12 -19 7 -8 2 -15 -17 -24 -31
-13 -56 -48 -42 -57 5 -3 19 5 30 17 12 13 28 30 36 39 22 25 54 91 48 100 -3
5 0 9 5 9 14 0 14 105 1 131 -7 13 -7 19 0 19 5 0 10 -5 10 -12 0 -6 3 -9 6
-5 3 3 8 47 10 98 3 70 1 98 -11 115 -12 19 -12 23 0 28 8 3 15 11 14 18 0 10
-2 10 -6 1 -2 -7 -9 -13 -14 -13 -4 0 -6 7 -3 15 7 17 -1 20 -11 5z"/>
<path d="M3277 316 c-5 -13 38 -52 64 -58 6 -2 23 -13 36 -25 14 -12 38 -28
54 -35 16 -7 29 -17 29 -21 0 -5 5 -5 10 -2 6 3 10 2 10 -2 0 -9 144 -94 165
-97 5 -1 20 -8 33 -14 12 -7 28 -10 34 -6 7 5 8 3 3 -6 -6 -10 -4 -12 8 -7 10
4 20 0 26 -11 6 -9 11 -13 11 -8 0 5 8 2 17 -5 14 -12 16 -12 8 0 -6 11 -4 13
8 8 10 -3 17 -2 17 3 0 6 -4 11 -10 11 -20 3 -26 6 -131 57 -58 29 -111 52
-116 52 -6 0 -17 7 -24 16 -12 15 -52 36 -74 39 -5 0 -9 7 -7 14 1 7 -2 10 -8
6 -5 -3 -10 -1 -10 5 0 6 -12 16 -27 23 -16 6 -39 22 -53 34 -14 13 -30 23
-37 23 -7 0 -13 5 -13 10 0 15 -17 12 -23 -4z"/>
</g>
</svg>
